PathFileType	4	(X/Y/Z) abd_0kg_1.trc																										
DataRate	CameraRate	NumFrames	NumMarkers	Units	OrigDataRate	OrigDataStartFrame	OrigNumFrames																					
100	100	59	9	mm	100	1	1091																					
Frame#	Time	gu			centelbow			EpL			centpxt8			centijc7			ij			ts			aa			ai		
		X1	Y1	Z1	X2	Y2	Z2	X3	Y3	Z3	X4	Y4	Z4	X5	Y5	Z5	X6	Y6	Z6	X7	Y7	Z7	X8	Y8	Z8	X9	Y9	Z9  
0	0	-74.708	-22.067	163.892	-110.428	-264.365	195.513	-90.29	-260.028	220.314	-46.816	-153.158	-8.669	-46.816	31.938	-8.669	0	0	0	-136.737	31.161	60.088	-99.246	17.538	172.487	-161.221	-79.682	60.35
1	0.01	-74.754	-22.056	163.99	-110.47	-264.354	195.618	-90.335	-260.015	220.42	-46.816	-153.158	-8.669	-46.816	31.938	-8.669	0	0	0	-136.603	31.067	60.179	-99.125	17.447	172.583	-161.084	-79.776	60.44
2	0.02	-74.832	-22.041	164.075	-110.539	-264.339	195.714	-90.409	-259.996	220.52	-46.816	-153.158	-8.669	-46.816	31.938	-8.669	0	0	0	-136.482	30.997	60.237	-99.011	17.374	172.644	-160.959	-79.848	60.493
3	0.03	-74.93	-22.023	164.119	-110.631	-264.321	195.764	-90.504	-259.977	220.572	-46.816	-153.158	-8.669	-46.816	31.938	-8.669	0	0	0	-136.434	30.987	60.217	-98.967	17.358	172.623	-160.912	-79.857	60.466
4	0.04	-74.986	-22.026	164.127	-110.698	-264.323	195.767	-90.571	-259.98	220.576	-46.816	-153.158	-8.669	-46.816	31.938	-8.669	0	0	0	-136.425	31	60.18	-98.963	17.371	172.589	-160.912	-79.842	60.431
5	0.05	-74.984	-22.064	164.116	-110.726	-264.358	195.743	-90.596	-260.019	220.55	-46.816	-153.158	-8.669	-46.816	31.938	-8.669	0	0	0	-136.431	30.983	60.176	-98.972	17.365	172.587	-160.924	-79.858	60.44
6	0.06	-74.965	-22.111	164.099	-110.73	-264.404	195.711	-90.601	-260.068	220.519	-46.816	-153.158	-8.669	-46.816	31.938	-8.669	0	0	0	-136.501	30.933	60.165	-99.042	17.327	172.577	-160.994	-79.908	60.44
7	0.07	-74.964	-22.137	164.089	-110.727	-264.431	195.698	-90.602	-260.095	220.509	-46.816	-153.158	-8.669	-46.816	31.938	-8.669	0	0	0	-136.636	30.891	60.141	-99.178	17.288	172.554	-161.125	-79.951	60.419
8	0.08	-74.977	-22.148	164.075	-110.727	-264.441	195.697	-90.606	-260.102	220.511	-46.816	-153.158	-8.669	-46.816	31.938	-8.669	0	0	0	-136.756	30.886	60.154	-99.308	17.283	172.57	-161.245	-79.956	60.428
9	0.09	-74.985	-22.154	164.053	-110.739	-264.445	195.694	-90.621	-260.103	220.51	-46.816	-153.158	-8.669	-46.816	31.938	-8.669	0	0	0	-136.808	30.916	60.19	-99.375	17.311	172.611	-161.303	-79.925	60.462
10	0.1	-74.989	-22.159	164.072	-110.756	-264.446	195.727	-90.64	-260.103	220.545	-46.816	-153.158	-8.669	-46.816	31.938	-8.669	0	0	0	-136.765	30.947	60.191	-99.345	17.337	172.616	-161.268	-79.891	60.458
11	0.11	-74.991	-22.158	164.123	-110.761	-264.443	195.789	-90.646	-260.099	220.606	-46.816	-153.158	-8.669	-46.816	31.938	-8.669	0	0	0	-136.655	30.947	60.133	-99.242	17.324	172.558	-161.166	-79.889	60.388
12	0.12	-74.982	-22.14	164.117	-110.748	-264.425	195.795	-90.632	-260.079	220.613	-46.816	-153.158	-8.669	-46.816	31.938	-8.669	0	0	0	-136.563	30.94	60.048	-99.148	17.303	172.471	-161.082	-79.895	60.292
13	0.13	-74.964	-22.097	164.043	-110.73	-264.38	195.73	-90.614	-260.034	220.546	-46.816	-153.158	-8.669	-46.816	31.938	-8.669	0	0	0	-136.533	30.97	60.01	-99.113	17.326	172.43	-161.062	-79.863	60.253
14	0.14	-74.951	-22.054	163.979	-110.722	-264.336	195.665	-90.604	-259.991	220.481	-46.816	-153.158	-8.669	-46.816	31.938	-8.669	0	0	0	-136.54	31.008	60.04	-99.119	17.373	172.461	-161.072	-79.824	60.293
15	0.15	-74.944	-22.038	163.963	-110.71	-264.322	195.641	-90.593	-259.977	220.457	-46.816	-153.158	-8.669	-46.816	31.938	-8.669	0	0	0	-136.539	31.009	60.071	-99.122	17.392	172.496	-161.06	-79.826	60.337
16	0.16	-74.939	-22.045	163.971	-110.69	-264.333	195.633	-90.573	-259.988	220.449	-46.816	-153.158	-8.669	-46.816	31.938	-8.669	0	0	0	-136.501	30.98	60.051	-99.087	17.377	172.478	-161.007	-79.858	60.324
17	0.17	-74.955	-22.053	163.974	-110.695	-264.346	195.616	-90.579	-260.003	220.433	-46.816	-153.158	-8.669	-46.816	31.938	-8.669	0	0	0	-136.459	30.959	60.007	-99.049	17.355	172.436	-160.958	-79.881	60.277
18	0.18	-75.026	-22.051	163.966	-110.768	-264.345	195.594	-90.653	-260.003	220.412	-46.816	-153.158	-8.669	-46.816	31.938	-8.669	0	0	0	-136.497	30.966	59.974	-99.097	17.353	172.405	-160.999	-79.873	60.233
19	0.19	-75.133	-22.042	163.952	-110.885	-264.335	195.574	-90.771	-259.994	220.393	-46.816	-153.158	-8.669	-46.816	31.938	-8.669	0	0	0	-136.629	30.992	59.949	-99.24	17.369	172.383	-161.136	-79.845	60.198
20	0.2	-75.207	-22.039	163.937	-110.967	-264.331	195.558	-90.854	-259.99	220.378	-46.816	-153.158	-8.669	-46.816	31.938	-8.669	0	0	0	-136.73	31.009	59.939	-99.341	17.379	172.371	-161.244	-79.827	60.183
21	0.21	-75.217	-22.042	163.924	-110.979	-264.333	195.55	-90.863	-259.993	220.368	-46.816	-153.158	-8.669	-46.816	31.938	-8.669	0	0	0	-136.702	31.001	59.952	-99.293	17.369	172.378	-161.221	-79.834	60.2
22	0.22	-75.195	-22.041	163.909	-110.957	-264.331	195.546	-90.838	-259.991	220.361	-46.816	-153.158	-8.669	-46.816	31.938	-8.669	0	0	0	-136.599	30.982	59.973	-99.164	17.351	172.39	-161.119	-79.852	60.228
23	0.23	-75.184	-22.042	163.896	-110.947	-264.331	195.54	-90.826	-259.99	220.353	-46.816	-153.158	-8.669	-46.816	31.938	-8.669	0	0	0	-136.545	30.976	59.976	-99.102	17.344	172.391	-161.063	-79.859	60.232
24	0.24	-75.2	-22.065	163.903	-110.961	-264.355	195.549	-90.84	-260.013	220.363	-46.816	-153.158	-8.669	-46.816	31.938	-8.669	0	0	0	-136.601	30.996	59.976	-99.171	17.357	172.394	-161.117	-79.84	60.221
25	0.25	-75.221	-22.113	163.965	-110.971	-264.404	195.613	-90.853	-260.061	220.429	-46.816	-153.158	-8.669	-46.816	31.938	-8.669	0	0	0	-136.698	31.03	60.021	-99.291	17.38	172.445	-161.217	-79.805	60.251
26	0.26	-75.205	-22.142	164.08	-110.938	-264.436	195.722	-90.824	-260.091	220.541	-46.816	-153.158	-8.669	-46.816	31.938	-8.669	0	0	0	-136.721	31.029	60.119	-99.335	17.368	172.549	-161.25	-79.804	60.337
27	0.27	-75.159	-22.129	164.182	-110.877	-264.427	195.804	-90.765	-260.083	220.624	-46.816	-153.158	-8.669	-46.816	31.938	-8.669	0	0	0	-136.67	30.949	60.2	-99.3	17.282	172.634	-161.214	-79.881	60.414
28	0.28	-75.149	-22.11	164.188	-110.865	-264.411	195.793	-90.755	-260.067	220.616	-46.816	-153.158	-8.669	-46.816	31.938	-8.669	0	0	0	-136.679	30.844	60.175	-99.319	17.179	172.614	-161.236	-79.983	60.394
29	0.29	-75.198	-22.118	164.096	-110.922	-264.417	195.707	-90.811	-260.074	220.529	-46.816	-153.158	-8.669	-46.816	31.938	-8.669	0	0	0	-136.82	30.825	60.051	-99.466	17.167	172.491	-161.382	-80	60.277
30	0.3	-75.223	-22.176	164.021	-110.955	-264.472	195.646	-90.841	-260.129	220.465	-46.816	-153.158	-8.669	-46.816	31.938	-8.669	0	0	0	-136.979	30.869	59.968	-99.628	17.212	172.41	-161.536	-79.958	60.193
31	0.31	-75.134	-22.292	164.04	-110.865	-264.588	195.662	-90.748	-260.246	220.48	-46.816	-153.158	-8.669	-46.816	31.938	-8.669	0	0	0	-136.999	30.838	60.033	-99.655	17.168	172.476	-161.551	-79.99	60.243
32	0.32	-74.953	-22.37	164.071	-110.667	-264.672	195.676	-90.547	-260.331	220.491	-46.816	-153.158	-8.669	-46.816	31.938	-8.669	0	0	0	-136.878	30.741	60.143	-99.536	17.053	172.584	-161.431	-80.087	60.334
33	0.33	-74.807	-22.305	164.025	-110.49	-264.613	195.61	-90.367	-260.273	220.422	-46.816	-153.158	-8.669	-46.816	31.938	-8.669	0	0	0	-136.729	30.727	60.137	-99.379	17.032	172.575	-161.287	-80.099	60.324
34	0.34	-74.789	-22.155	163.95	-110.446	-264.47	195.519	-90.321	-260.129	220.33	-46.816	-153.158	-8.669	-46.816	31.938	-8.669	0	0	0	-136.655	30.829	60.04	-99.286	17.136	172.471	-161.214	-79.997	60.234
35	0.35	-74.84	-22.078	163.956	-110.486	-264.395	195.514	-90.361	-260.055	220.325	-46.816	-153.158	-8.669	-46.816	31.938	-8.669	0	0	0	-136.64	30.919	60.005	-99.254	17.227	172.431	-161.196	-79.908	60.203
36	0.36	-74.822	-22.115	164.063	-110.464	-264.435	195.61	-90.339	-260.095	220.421	-46.816	-153.158	-8.669	-46.816	31.938	-8.669	0	0	0	-136.607	30.926	60.07	-99.213	17.23	172.492	-161.162	-79.901	60.265
37	0.37	-74.701	-22.151	164.157	-110.323	-264.476	195.684	-90.196	-260.138	220.493	-46.816	-153.158	-8.669	-46.816	31.938	-8.669	0	0	0	-136.569	30.931	60.101	-99.167	17.231	172.521	-161.128	-79.895	60.295
38	0.38	-74.584	-22.074	164.132	-110.154	-264.412	195.622	-90.019	-260.075	220.425	-46.816	-153.158	-8.669	-46.816	31.938	-8.669	0	0	0	-136.601	30.999	60.02	-99.185	17.303	172.436	-161.159	-79.827	60.222
39	0.39	-74.585	-21.94	164.027	-110.084	-264.294	195.476	-89.938	-259.958	220.27	-46.816	-153.158	-8.669	-46.816	31.938	-8.669	0	0	0	-136.718	31.071	59.907	-99.282	17.387	172.318	-161.264	-79.758	60.121
40	0.4	-74.743	-21.88	163.99	-110.186	-264.246	195.408	-90.029	-259.912	220.194	-46.816	-153.158	-8.669	-46.816	31.938	-8.669	0	0	0	-136.882	31.049	59.877	-99.429	17.376	172.283	-161.408	-79.784	60.098
41	0.41	-74.984	-21.916	164.073	-110.396	-264.289	195.469	-90.234	-259.956	220.251	-46.816	-153.158	-8.669	-46.816	31.938	-8.669	0	0	0	-137.029	30.906	59.957	-99.572	17.234	172.362	-161.543	-79.93	60.175
42	0.42	-75.154	-21.968	164.183	-110.546	-264.347	195.553	-90.383	-260.015	220.334	-46.816	-153.158	-8.669	-46.816	31.938	-8.669	0	0	0	-137.059	30.748	60.118	-99.619	17.066	172.527	-161.575	-80.087	60.323
43	0.43	-75.191	-21.972	164.241	-110.562	-264.358	195.579	-90.4	-260.027	220.362	-46.816	-153.158	-8.669	-46.816	31.938	-8.669	0	0	0	-136.903	30.7	60.328	-99.494	17.009	172.747	-161.421	-80.136	60.519
44	0.44	-75.185	-21.932	164.261	-110.548	-264.323	195.567	-90.389	-259.995	220.352	-46.816	-153.158	-8.669	-46.816	31.938	-8.669	0	0	0	-136.664	30.744	60.504	-99.287	17.054	172.933	-161.176	-80.093	60.686
45	0.45	-75.214	-21.901	164.266	-110.591	-264.293	195.554	-90.434	-259.967	220.341	-46.816	-153.158	-8.669	-46.816	31.938	-8.669	0	0	0	-136.554	30.782	60.541	-99.191	17.095	172.975	-161.057	-80.057	60.72
46	0.46	-75.257	-21.881	164.262	-110.636	-264.272	195.553	-90.481	-259.945	220.341	-46.816	-153.158	-8.669	-46.816	31.938	-8.669	0	0	0	-136.633	30.78	60.439	-99.256	17.099	172.869	-161.129	-80.06	60.624
47	0.47	-75.277	-21.807	164.239	-110.619	-264.201	195.546	-90.466	-259.87	220.335	-46.816	-153.158	-8.669	-46.816	31.938	-8.669	0	0	0	-136.78	30.782	60.296	-99.373	17.113	172.718	-161.268	-80.06	60.497
48	0.48	-75.286	-21.7	164.192	-110.568	-264.102	195.508	-90.414	-259.765	220.296	-46.816	-153.158	-8.669	-46.816	31.938	-8.669	0	0	0	-136.886	30.802	60.206	-99.445	17.151	172.619	-161.363	-80.043	60.428
49	0.49	-75.286	-21.658	164.149	-110.529	-264.067	195.457	-90.374	-259.728	220.243	-46.816	-153.158	-8.669	-46.816	31.938	-8.669	0	0	0	-136.923	30.816	60.204	-99.455	17.178	172.609	-161.396	-80.029	60.443
50	0.5	-75.244	-21.688	164.142	-110.498	-264.098	195.431	-90.339	-259.763	220.215	-46.816	-153.158	-8.669	-46.816	31.938	-8.669	0	0	0	-136.905	30.814	60.256	-99.42	17.178	172.656	-161.383	-80.03	60.503
51	0.51	-75.155	-21.725	164.18	-110.446	-264.132	195.452	-90.284	-259.802	220.234	-46.816	-153.158	-8.669	-46.816	31.938	-8.669	0	0	0	-136.869	30.783	60.319	-99.374	17.149	172.716	-161.357	-80.058	60.573
52	0.52	-75.072	-21.736	164.245	-110.394	-264.139	195.512	-90.232	-259.812	220.295	-46.816	-153.158	-8.669	-46.816	31.938	-8.669	0	0	0	-136.876	30.727	60.363	-99.369	17.103	172.757	-161.362	-80.115	60.629
53	0.53	-75.069	-21.723	164.309	-110.404	-264.122	195.586	-90.242	-259.795	220.369	-46.816	-153.158	-8.669	-46.816	31.938	-8.669	0	0	0	-136.938	30.691	60.349	-99.412	17.085	172.738	-161.412	-80.154	60.632
54	0.54	-75.148	-21.704	164.361	-110.478	-264.101	195.662	-90.316	-259.771	220.444	-46.816	-153.158	-8.669	-46.816	31.938	-8.669	0	0	0	-137.001	30.709	60.292	-99.451	17.119	172.676	-161.465	-80.138	60.593
55	0.55	-75.234	-21.697	164.408	-110.549	-264.092	195.741	-90.383	-259.759	220.519	-46.816	-153.158	-8.669	-46.816	31.938	-8.669	0	0	0	-137.031	30.753	60.272	-99.46	17.167	172.649	-161.497	-80.094	60.582
56	0.56	-75.247	-21.7	164.441	-110.545	-264.093	195.807	-90.371	-259.757	220.579	-46.816	-153.158	-8.669	-46.816	31.938	-8.669	0	0	0	-137.024	30.79	60.308	-99.428	17.209	172.677	-161.492	-80.056	60.629
57	0.57	-75.153	-21.702	164.446	-110.437	-264.094	195.845	-90.253	-259.756	220.608	-46.816	-153.158	-8.669	-46.816	31.938	-8.669	0	0	0	-136.962	30.819	60.364	-99.339	17.257	172.727	-161.418	-80.03	60.705
58	0.58	-75.005	-21.695	164.418	-110.278	-264.083	195.853	-90.084	-259.743	220.607	-46.816	-153.158	-8.669	-46.816	31.938	-8.669	0	0	0	-136.873	30.828	60.424	-99.226	17.293	172.782	-161.311	-80.025	60.792
